<?xml version="1.0" standalone="no"?>
<!DOCTYPE svg PUBLIC "-//W3C//DTD SVG 20010904//EN"
 "http://www.w3.org/TR/2001/REC-SVG-20010904/DTD/svg10.dtd">
<svg version="1.0" xmlns="http://www.w3.org/2000/svg"
 width="500.000000pt" height="500.000000pt" viewBox="0 0 500.000000 500.000000"
 preserveAspectRatio="xMidYMid meet">
<metadata>
Created by potrace 1.14, written by Peter Selinger 2001-2017
</metadata>
<g transform="translate(0.000000,500.000000) scale(0.100000,-0.100000)"
fill="#000000" stroke="none">
<path d="M1065 4985 c-468 -75 -852 -396 -999 -835 -64 -194 -61 -102 -61
-1650 0 -1321 1 -1410 18 -1490 56 -259 162 -456 346 -641 185 -184 382 -290
641 -346 80 -17 169 -18 1490 -18 1321 0 1410 1 1490 18 259 56 456 162 641
346 184 185 290 382 346 641 17 80 18 169 18 1490 0 1321 -1 1410 -18 1490
-56 259 -162 456 -346 641 -181 180 -368 283 -631 345 -70 17 -170 18 -1465
20 -1095 2 -1407 0 -1470 -11z m3745 -2450 l0 -894 -52 -15 c-109 -31 -273
-50 -433 -50 -184 -1 -232 8 -353 66 -183 87 -292 257 -311 485 -22 254 46
480 182 607 132 124 357 168 542 107 33 -11 63 -21 68 -21 4 0 7 125 7 279 l0
279 153 25 c83 13 162 25 175 26 l22 1 0 -895z m-4061 548 c78 -157 225 -483
316 -701 26 -62 51 -110 55 -105 4 4 41 89 83 189 98 233 210 481 292 645 l65
129 168 -2 167 -3 11 -80 c32 -226 76 -767 104 -1280 6 -110 12 -217 14 -237
l4 -38 -178 0 -179 0 -5 53 c-3 28 -10 187 -16 352 -12 340 -30 634 -39 652
-4 7 -89 -181 -190 -417 l-183 -431 -132 3 -131 3 -184 433 c-101 237 -185
431 -187 429 -8 -8 -54 -885 -54 -1038 l0 -39 -181 0 -181 0 6 108 c45 786 88
1315 122 1500 l6 32 174 0 174 0 79 -157z m2296 -230 c181 -45 316 -183 370
-378 10 -37 19 -118 22 -212 l6 -153 -402 0 -401 0 0 -22 c0 -34 39 -105 73
-134 18 -15 56 -38 85 -51 96 -45 308 -42 464 7 l58 18 5 -22 c3 -11 12 -64
20 -116 9 -52 18 -107 21 -122 5 -24 1 -27 -43 -42 -156 -51 -433 -72 -573
-42 -235 49 -407 216 -455 441 -22 104 -20 292 4 386 54 211 202 376 391 438
99 31 238 33 355 4z"/>
<path d="M4154 2547 c-81 -39 -118 -105 -135 -238 -24 -190 37 -350 155 -411
46 -24 163 -35 240 -24 l46 7 0 320 0 320 -47 21 c-30 13 -76 22 -127 25 -71
4 -87 1 -132 -20z"/>
<path d="M2775 2563 c-52 -27 -94 -75 -115 -130 -33 -89 -49 -83 210 -83 263
0 247 -7 210 93 -21 57 -55 95 -107 121 -42 21 -157 21 -198 -1z"/>
</g>
</svg>
