<?xml version="1.0" encoding="UTF-8" standalone="no"?>
<!-- Created with Inkscape (http://www.inkscape.org/) -->

<svg
   version="1.1"
   id="svg2"
   width="1333.3333"
   height="402.66666"
   viewBox="0 0 1333.3333 402.66666"
   sodipodi:docname="Boehringer_Logo_RGB_Dark-Green.eps"
   xmlns:inkscape="http://www.inkscape.org/namespaces/inkscape"
   xmlns:sodipodi="http://sodipodi.sourceforge.net/DTD/sodipodi-0.dtd"
   xmlns="http://www.w3.org/2000/svg"
   xmlns:svg="http://www.w3.org/2000/svg">
  <defs
     id="defs6" />
  <sodipodi:namedview
     id="namedview4"
     pagecolor="#ffffff"
     bordercolor="#000000"
     borderopacity="0.25"
     inkscape:showpageshadow="2"
     inkscape:pageopacity="0.0"
     inkscape:pagecheckerboard="0"
     inkscape:deskcolor="#d1d1d1" />
  <g
     id="g8"
     inkscape:groupmode="layer"
     inkscape:label="ink_ext_XXXXXX"
     transform="matrix(1.3333333,0,0,-1.3333333,0,402.66667)">
    <g
       id="g10"
       transform="scale(0.1)">
      <path
         d="m 2095.44,285.879 c -45.62,-21.277 -72.99,-33.449 -145.98,-66.899 v 994.49 h 145.98 z M 1803.48,179.441 c -45.63,-15.211 -85.16,-24.332 -142.95,-36.5 V 2153.23 h 142.95 z M 1514.55,133.82 c -21.28,-3.039 -27.37,-3.039 -57.78,-3.039 -45.62,0 -60.83,0 -85.16,3.039 v 2019.41 h 142.94 z m -288.92,12.16 c -51.7,9.129 -54.74,9.129 -72.99,15.211 -15.2,3.039 -21.28,3.039 -69.94,15.2 V 2153.23 h 142.93 z m 580.88,2113.69 -361.9,279.8 -361.91,-279.8 -79.08,103.4 440.99,343.66 440.97,-343.66 z M 936.715,222.02 c -27.371,6.082 -91.238,36.492 -142.945,63.859 V 1213.47 H 936.715 Z M 650.836,368 C 444.023,517.02 334.543,626.512 231.133,784.648 82.1172,1015.79 0,1295.58 0,1572.34 c 0,799.86 644.754,1447.65 1444.61,1447.65 796.81,0 1444.6,-647.79 1444.6,-1444.61 0,-328.46 -112.52,-656.911 -310.21,-900.208 C 2496.88,571.77 2426.94,510.941 2238.38,368 v 845.47 h 142.93 V 635.629 c 106.45,124.691 158.15,200.723 209.86,291.961 106.44,188.56 164.22,422.74 164.22,647.79 0,729.91 -586.96,1322.96 -1310.78,1322.96 -726.876,0 -1310.797,-593.05 -1310.797,-1332.08 0,-337.58 118.613,-635.631 371.042,-930.631 V 1213.47 H 650.836 V 368"
         style="fill:#08312a;fill-opacity:1;fill-rule:nonzero;stroke:none"
         id="path12" />
      <path
         d="m 5401.41,2284 c -6.08,164.23 -36.49,228.09 -106.45,228.09 -69.94,0 -106.44,-69.95 -124.69,-228.09 z m -231.14,-72.98 c 15.21,-206.82 66.91,-291.97 176.4,-291.97 54.74,0 94.27,27.37 139.9,97.32 l 66.91,-27.37 c -76.04,-136.86 -130.78,-176.39 -249.39,-176.39 -182.47,0 -285.88,130.76 -285.88,367.98 0,252.43 106.44,404.49 282.84,404.49 170.31,0 252.43,-121.65 255.46,-374.06 z M 4853.98,787.691 c 0,-127.73 30.41,-185.511 103.4,-185.511 69.95,0 103.4,57.781 103.4,170.308 0,133.813 -36.49,197.684 -109.48,197.684 -66.91,0 -97.32,-57.781 -97.32,-182.481 z m -6.09,-486.601 c -39.53,-36.488 -54.74,-66.91 -54.74,-112.531 0,-66.911 60.83,-106.4379 161.19,-106.4379 124.69,0 218.97,51.6989 218.97,124.6879 0,63.871 -33.45,76.031 -267.63,91.242 z m 316.3,623.461 c 42.58,-54.742 54.75,-91.242 54.75,-149.031 0,-139.891 -109.49,-243.301 -255.48,-243.301 -30.41,0 -54.74,3.051 -82.11,12.172 -36.49,-24.332 -57.78,-48.661 -57.78,-66.911 0,-18.242 18.24,-27.359 63.87,-30.41 l 182.47,-9.121 c 142.95,-6.078 209.85,-60.828 209.85,-173.347 C 5279.76,103.398 5136.82,0 4917.85,0 c -164.23,0 -270.68,60.832 -270.68,155.109 0,60.832 30.42,100.36 118.62,158.153 -60.83,24.32 -85.16,51.699 -85.16,94.277 0,54.742 39.53,103.402 136.85,164.231 -91.23,57.769 -124.68,115.558 -124.68,209.839 0,142.942 109.48,252.431 252.41,252.431 30.42,0 42.58,-3.04 97.32,-15.21 30.42,-9.12 51.71,-12.16 66.92,-12.16 3.04,0 15.2,0 27.37,3.04 h 27.37 l 124.69,3.04 V 924.551 Z M 4467.74,2192.77 c 0,-194.65 48.66,-304.14 133.82,-304.14 91.24,0 139.9,115.57 139.9,343.67 0,182.47 -48.66,282.84 -133.82,282.84 -88.2,0 -139.9,-118.61 -139.9,-322.37 z m 437.94,21.28 c 0,-240.26 -124.69,-401.44 -307.17,-401.44 -173.35,0 -291.96,152.06 -291.96,374.07 0,237.21 124.69,401.45 307.17,401.45 173.35,0 291.96,-149.03 291.96,-374.08 z M 4270.06,273.719 v 60.832 l 79.07,15.199 v 444.02 c 0,85.16 -27.38,124.699 -85.16,124.699 -45.62,0 -85.15,-18.25 -142.94,-66.91 V 355.832 l 79.07,-18.25 v -63.863 h -313.24 v 60.832 l 88.19,18.25 v 553.5 l -88.19,12.168 v 60.82 l 188.56,48.661 h 42.57 v -91.231 c 91.24,69.951 133.82,88.201 200.73,88.201 115.57,0 179.43,-72.99 179.43,-197.69 V 355.832 l 79.08,-18.25 V 273.719 Z M 3689.17,1912.96 c 30.42,-18.25 51.7,-24.33 94.28,-24.33 142.94,0 231.14,88.2 231.14,231.14 0,149.02 -82.12,218.98 -258.51,218.98 h -66.91 z m 76.03,498.77 c 130.78,0 191.6,66.91 191.6,209.85 0,121.65 -63.86,194.64 -173.35,194.64 -30.41,0 -51.7,-3.04 -94.28,-18.25 V 2411.73 Z M 3439.79,273.719 v 60.832 l 97.32,18.25 v 888.039 l -97.32,15.21 v 66.91 h 349.75 v -63.87 l -91.24,-18.25 V 355.832 l 88.19,-18.25 v -63.863 z m 307.16,2603.331 c 45.63,3.04 82.12,6.08 94.29,6.08 173.35,0 288.92,-100.36 288.92,-255.47 0,-106.44 -57.79,-182.47 -182.48,-243.3 158.15,-33.45 243.31,-133.81 243.31,-282.84 0,-115.57 -63.88,-212.89 -164.23,-252.42 -45.63,-18.25 -100.37,-24.33 -200.73,-24.33 h -94.28 c -51.7,3.04 -91.24,3.04 -121.65,3.04 h -176.39 v 60.82 l 103.4,18.25 v 885.01 l -103.4,18.25 v 63.87 h 185.51 l 127.73,3.04"
         style="fill:#08312a;fill-opacity:1;fill-rule:nonzero;stroke:none"
         id="path14" />
      <path
         d="M 7591.24,729.91 C 7588.19,888.059 7557.78,958 7487.83,958 7417.88,958 7378.35,891.09 7360.1,729.91 Z M 7360.1,659.961 c 15.2,-209.84 66.91,-295 176.39,-295 57.79,0 97.32,27.371 142.95,97.32 l 66.89,-27.383 c -69.95,-130.769 -133.81,-176.386 -252.41,-176.386 -182.48,0 -285.89,136.859 -285.89,371.027 0,252.43 106.44,401.461 282.84,401.461 121.65,0 200.73,-63.871 237.22,-182.48 12.17,-39.54 15.2,-88.2 21.29,-188.559 z M 7211.06,2846.64 c 0,-54.75 -42.57,-97.33 -97.32,-97.33 -54.73,0 -97.32,42.58 -97.32,97.33 0,54.74 42.59,97.32 97.32,97.32 54.75,0 97.32,-42.58 97.32,-97.32 z M 6970.82,1827.81 v 60.82 l 82.1,18.25 v 547.44 l -82.1,18.24 v 51.7 l 191.59,48.66 h 36.49 v -666.04 l 85.16,-15.2 v -63.87 z M 6660.6,2439.1 c 60.82,103.41 91.24,130.78 145.98,130.78 54.74,0 88.2,-33.46 88.2,-88.2 0,-33.45 -18.25,-60.82 -57.78,-91.24 l -79.08,42.58 c -51.69,-27.37 -94.28,-85.15 -94.28,-127.73 v -398.41 l 106.45,-15.2 v -63.87 H 6432.5 v 60.82 l 88.21,18.25 v 559.6 l -88.21,15.2 v 48.66 l 182.48,48.66 h 45.62 z M 6806.58,273.719 v 60.832 l 72.99,15.199 v 413.609 c 0,109.493 -24.32,149.032 -88.2,149.032 -42.57,0 -79.07,-18.25 -139.89,-69.961 V 355.832 l 72.98,-18.25 V 273.719 H 6417.3 v 60.832 l 88.2,18.25 v 930.619 l -85.16,15.21 v 51.7 l 191.6,42.57 h 39.54 V 930.629 c 82.11,66.91 130.77,88.201 200.73,88.201 112.52,0 176.39,-69.951 176.39,-194.639 V 355.832 l 82.11,-18.25 v -63.863 z m -805.94,0 v 60.832 l 88.2,18.25 V 1289.5 l -85.15,9.13 v 51.7 l 191.6,42.57 h 39.53 V 355.832 l 82.12,-18.25 v -63.863 z m 27.38,1554.091 v 60.82 l 72.99,15.21 v 410.57 c 0,109.48 -24.33,149.02 -88.2,149.02 -45.62,0 -79.08,-15.2 -139.9,-66.9 v -489.65 l 72.99,-15.2 v -63.87 h -310.21 v 60.82 l 91.24,18.25 v 927.59 l -85.16,18.24 v 51.71 l 188.56,39.54 h 42.58 v -459.23 c 85.15,66.91 133.81,88.19 197.68,88.19 118.61,0 179.44,-69.94 179.44,-206.81 v -459.23 l 79.08,-15.2 v -63.87 z M 5754.31,729.91 C 5751.26,888.059 5720.85,958 5650.9,958 c -69.95,0 -109.48,-66.91 -127.73,-228.09 z m -231.14,-69.949 c 15.2,-209.84 66.9,-295 176.39,-295 57.78,0 97.32,27.371 142.94,97.32 l 66.9,-27.383 c -69.94,-130.769 -133.81,-176.386 -252.41,-176.386 -182.48,0 -285.89,136.859 -285.89,371.027 0,252.43 106.45,401.461 282.84,401.461 121.65,0 200.72,-63.871 237.22,-182.48 12.16,-39.54 15.21,-88.2 21.29,-188.559 h -389.28"
         style="fill:#08312a;fill-opacity:1;fill-rule:nonzero;stroke:none"
         id="path16" />
      <path
         d="m 9765.82,2439.1 c 60.83,103.41 91.24,130.78 145.99,130.78 54.74,0 88.19,-33.46 88.19,-88.2 0,-33.45 -18.25,-60.82 -57.78,-91.24 l -79.08,42.58 c -51.69,-27.37 -94.28,-85.15 -94.28,-127.73 v -398.41 l 106.45,-15.2 v -63.87 h -337.59 v 60.82 l 88.21,18.25 v 559.6 l -88.21,15.2 v 48.66 L 9720.2,2579 h 45.62 z M 9257.93,2284 c -6.08,164.23 -36.49,228.09 -106.44,228.09 -69.95,0 -106.45,-69.95 -124.7,-228.09 z m -231.14,-72.98 c 15.22,-206.82 66.91,-291.97 176.4,-291.97 54.74,0 94.28,27.37 139.89,97.32 l 66.91,-27.37 c -76.02,-136.86 -130.77,-176.39 -249.38,-176.39 -182.48,0 -285.89,130.76 -285.89,367.98 0,252.43 106.45,404.49 282.84,404.49 170.32,0 252.43,-121.65 255.48,-374.06 z m -672.12,130.76 c 0,-127.73 30.41,-185.51 103.41,-185.51 69.95,0 103.4,57.78 103.4,170.3 0,133.82 -36.5,197.69 -109.49,197.69 -66.91,0 -97.32,-57.78 -97.32,-182.48 z m -60.82,-599.13 c 0,-66.9 60.82,-106.44 161.18,-106.44 124.7,0 218.98,54.74 218.98,124.69 0,69.95 -24.34,76.04 -325.43,94.28 -39.53,-36.49 -54.73,-66.9 -54.73,-112.53 z M 9057.2,273.719 v 60.832 l 82.13,18.25 V 775.52 c 0,100.371 -27.38,139.91 -91.25,139.91 -48.66,0 -82.11,-18.25 -142.93,-73 V 355.832 l 76.02,-18.25 v -63.863 h -307.16 v 60.832 l 85.14,18.25 V 778.57 c 0,94.282 -30.41,136.86 -97.32,136.86 -48.64,0 -85.14,-18.25 -136.85,-69.95 V 355.832 l 69.96,-18.25 v -63.863 h -310.21 v 60.832 l 88.19,18.25 v 559.59 l -88.19,15.199 v 51.699 l 191.59,48.661 h 39.55 V 927.59 c 76.02,63.871 133.8,88.2 206.8,88.2 76.04,0 127.73,-30.411 170.3,-97.321 79.07,72.992 130.79,100.361 209.86,100.361 130.77,0 185.51,-63.869 185.51,-215.932 V 355.832 l 85.16,-18.25 V 273.719 Z M 8664.88,2478.64 c 42.58,-54.75 54.74,-91.23 54.74,-149.02 0,-139.9 -109.48,-243.3 -255.47,-243.3 -30.4,0 -54.73,3.04 -82.1,12.16 -36.5,-24.33 -57.79,-48.66 -57.79,-63.87 0,-21.28 18.25,-30.41 63.86,-33.45 l 182.48,-9.13 c 142.95,-6.08 209.86,-60.82 209.86,-173.34 0,-161.19 -142.95,-264.6 -361.91,-264.6 -164.23,0 -270.68,60.83 -270.68,155.11 0,60.83 33.45,103.41 118.61,158.15 -60.82,24.33 -85.16,54.74 -85.16,97.32 0,51.7 39.53,100.36 136.85,161.19 -91.23,57.78 -124.69,115.57 -124.69,209.84 0,142.94 109.5,252.43 252.42,252.43 30.42,0 42.59,-3.05 97.33,-15.21 30.41,-9.12 51.71,-12.17 66.91,-12.17 3.05,0 15.21,0 27.37,3.05 h 27.37 l 124.7,3.04 v -88.2 z M 8111.37,1295.58 c 0,-54.74 -45.62,-100.35 -100.36,-100.35 -54.74,0 -97.32,42.58 -97.32,97.32 0,54.74 45.61,100.35 103.4,100.35 51.71,0 94.28,-45.61 94.28,-97.32 z M 7868.07,273.719 v 60.832 l 82.11,18.25 v 550.461 l -82.11,18.25 v 48.66 l 191.61,48.658 h 36.48 V 355.832 l 85.16,-18.25 v -63.863 z m -94.28,1554.091 v 60.82 l 79.07,15.21 v 444.03 c 0,85.15 -27.36,124.69 -85.15,124.69 -45.62,0 -85.16,-18.24 -142.94,-66.91 v -495.72 l 79.07,-18.25 v -63.87 h -313.25 v 60.82 l 88.2,18.25 v 553.51 l -88.2,12.17 v 60.83 l 188.55,48.66 h 42.59 v -91.25 c 91.23,69.95 133.81,88.2 200.72,88.2 115.57,0 179.44,-72.99 179.44,-197.68 v -471.39 l 79.07,-18.25 v -63.87 h -307.17"
         style="fill:#08312a;fill-opacity:1;fill-rule:nonzero;stroke:none"
         id="path18" />
    </g>
  </g>
</svg>
