<?xml version="1.0" encoding="UTF-8" standalone="no"?>
<!DOCTYPE svg PUBLIC "-//W3C//DTD SVG 1.1//EN" "http://www.w3.org/Graphics/SVG/1.1/DTD/svg11.dtd">
<!-- Created with Vectornator (http://vectornator.io/) -->
<svg height="100%" stroke-miterlimit="10" style="fill-rule:nonzero;clip-rule:evenodd;stroke-linecap:round;stroke-linejoin:round;" version="1.1" viewBox="0 0 348.105 82.0649" width="100%" xml:space="preserve" xmlns="http://www.w3.org/2000/svg" xmlns:xlink="http://www.w3.org/1999/xlink">
<defs/>
<g id="Layer-1">
<g opacity="1">
<path d="M345.807 65.8903C346.512 66.1058 347.279 66.2875 348.105 66.4354L348.105 50.9926L348.105 0L337.805 1.70258L337.805 52.9506C337.805 55.164 338.032 57.1503 338.486 58.9097C338.996 60.6123 339.848 62.0595 341.04 63.2513C342.231 64.3863 343.82 65.266 345.807 65.8903Z" fill="#ffffff" fill-rule="evenodd" opacity="1" stroke="none"/>
<path d="M308.164 58.8245C311.343 58.8245 313.755 58.6543 315.4 58.3138L315.4 46.9064C314.833 46.7361 314.01 46.5659 312.932 46.3956C311.853 46.2254 310.662 46.1402 309.356 46.1402C308.221 46.1402 307.058 46.2254 305.866 46.3956C304.731 46.5659 303.681 46.878 302.716 47.3321C301.808 47.7861 301.07 48.4387 300.503 49.29C299.935 50.0846 299.651 51.1061 299.651 52.3547C299.651 54.7951 300.418 56.4977 301.95 57.4625C303.482 58.3705 305.554 58.8245 308.164 58.8245ZM307.313 20.4311C310.718 20.4311 313.584 20.8567 315.911 21.708C318.238 22.5593 320.083 23.7512 321.445 25.2835C322.863 26.8158 323.857 28.6887 324.424 30.902C325.048 33.0587 325.361 35.4423 325.361 38.0529L325.361 65.039C323.771 65.3795 321.359 65.7768 318.125 66.2308C314.946 66.7416 311.343 66.997 307.313 66.997C304.646 66.997 302.205 66.7416 299.992 66.2308C297.779 65.72 295.877 64.8971 294.288 63.7621C292.756 62.627 291.536 61.1514 290.628 59.3353C289.776 57.5192 289.351 55.2775 289.351 52.6101C289.351 50.0562 289.833 47.8996 290.798 46.1402C291.82 44.3809 293.182 42.9621 294.884 41.8838C296.587 40.7487 298.545 39.9542 300.758 39.5001C303.028 38.9894 305.383 38.734 307.824 38.734C308.959 38.734 310.151 38.8191 311.399 38.9894C312.648 39.1029 313.982 39.3299 315.4 39.6704L315.4 37.9678C315.4 36.776 315.259 35.6409 314.975 34.5626C314.691 33.4843 314.18 32.5479 313.442 31.7533C312.761 30.902 311.825 30.2494 310.633 29.7954C309.498 29.3413 308.051 29.1143 306.292 29.1143C303.908 29.1143 301.723 29.2846 299.737 29.6251C297.75 29.9656 296.133 30.3629 294.884 30.8169L293.607 22.4742C294.913 22.0202 296.814 21.5662 299.311 21.1121C301.808 20.6581 304.475 20.4311 307.313 20.4311Z" fill="#ffffff" fill-rule="nonzero" opacity="1" stroke="none"/>
<path d="M249.878 43.8417C249.878 40.5501 250.389 37.4854 251.41 34.6477C252.432 31.7533 253.879 29.2562 255.752 27.1563C257.682 25.0565 260.008 23.4106 262.733 22.2188C265.457 21.027 268.521 20.4311 271.927 20.4311C276.126 20.4311 280.099 21.1973 283.845 22.7296L281.631 31.1574C280.44 30.6467 279.077 30.221 277.545 29.8805C276.07 29.54 274.481 29.3697 272.778 29.3697C268.748 29.3697 265.684 30.6467 263.584 33.2005C261.484 35.6977 260.434 39.2447 260.434 43.8417C260.434 48.2685 261.427 51.7872 263.414 54.3978C265.4 56.9517 268.748 58.2286 273.459 58.2286C275.218 58.2286 276.949 58.0584 278.652 57.7179C280.354 57.3773 281.83 56.9517 283.079 56.4409L284.526 64.9539C283.391 65.5214 281.66 66.0322 279.333 66.4862C277.063 66.9402 274.708 67.1672 272.267 67.1672C268.465 67.1672 265.145 66.5997 262.307 65.4647C259.526 64.2728 257.199 62.6554 255.326 60.6123C253.51 58.5124 252.148 56.0436 251.24 53.206C250.332 50.3116 249.878 47.1902 249.878 43.8417Z" fill="#ffffff" fill-rule="nonzero" opacity="1" stroke="none"/>
<path d="M239.299 0L239.299 10.7265L228.999 12.5931L228.999 1.70258L239.299 0ZM228.999 52.9506L228.999 21.5378L239.206 19.7104L239.206 66.4862L237.597 66.0606C237.393 66.0064 237.195 65.9496 237.001 65.8903C235.014 65.266 233.425 64.3863 232.234 63.2513C231.042 62.0595 230.19 60.6123 229.68 58.9097C229.226 57.1503 228.999 55.164 228.999 52.9506Z" fill="#ffffff" fill-rule="evenodd" opacity="1" stroke="none"/>
<path d="M187.026 42.6499C187.026 47.0199 187.962 50.2265 189.835 52.2696C191.765 54.2559 194.234 55.2491 197.241 55.2491C198.887 55.2491 200.42 55.0221 201.838 54.5681C203.314 54.114 204.506 53.5749 205.414 52.9506L205.414 29.8805C204.676 29.7102 203.768 29.5683 202.69 29.4548C201.611 29.2846 200.249 29.1994 198.604 29.1994C194.858 29.1994 191.992 30.448 190.005 32.9452C188.019 35.3855 187.026 38.6205 187.026 42.6499ZM215.715 61.5487C215.715 68.6428 213.899 73.8357 210.266 77.1274C206.691 80.4191 201.186 82.0649 193.751 82.0649C191.027 82.0649 188.36 81.8379 185.749 81.3839C183.195 80.9299 180.868 80.334 178.768 79.5962L180.641 70.8278C182.401 71.5656 184.387 72.1615 186.6 72.6155C188.87 73.0696 191.311 73.2966 193.921 73.2966C198.064 73.2966 201.016 72.4453 202.775 70.7427C204.534 69.0401 205.414 66.5146 205.414 63.1662L205.414 61.4636C204.392 61.9743 203.03 62.4851 201.328 62.9959C199.682 63.5067 197.781 63.7621 195.624 63.7621C192.786 63.7621 190.176 63.308 187.792 62.4C185.465 61.4919 183.45 60.1582 181.748 58.3989C180.102 56.6396 178.797 54.4546 177.832 51.8439C176.924 49.1765 176.47 46.1119 176.47 42.6499C176.47 39.415 176.952 36.4355 177.917 33.7113C178.939 30.9872 180.386 28.6603 182.259 26.7307C184.188 24.8011 186.515 23.2971 189.239 22.2188C191.963 21.1405 195.056 20.6014 198.518 20.6014C201.867 20.6014 205.045 20.8567 208.053 21.3675C211.061 21.8783 213.615 22.4175 215.715 22.985L215.715 61.5487Z" fill="#ffffff" fill-rule="nonzero" opacity="1" stroke="none"/>
<path d="M137.778 43.331C137.778 47.2469 138.657 50.3967 140.417 52.7803C142.176 55.164 144.787 56.3558 148.248 56.3558C149.384 56.3558 150.433 56.3274 151.398 56.2707C152.363 56.1572 153.158 56.0436 153.782 55.9301L153.782 32.86C152.987 32.3492 151.937 31.9236 150.632 31.5831C149.384 31.2426 148.107 31.0723 146.801 31.0723C140.785 31.0723 137.778 35.1585 137.778 43.331ZM166.466 64.6134C165.331 64.9539 164.026 65.2944 162.55 65.6349C161.075 65.9187 159.514 66.1741 157.868 66.4011C156.279 66.6281 154.633 66.7984 152.931 66.9119C151.285 67.0821 149.696 67.1672 148.163 67.1672C144.474 67.1672 141.183 66.6281 138.288 65.5498C135.394 64.4715 132.954 62.9391 130.967 60.9528C128.981 58.9097 127.448 56.4693 126.37 53.6316C125.349 50.7372 124.838 47.5023 124.838 43.9269C124.838 40.2947 125.292 37.0314 126.2 34.137C127.108 31.1858 128.413 28.6887 130.116 26.6456C131.818 24.6025 133.89 23.0417 136.33 21.9634C138.827 20.8851 141.665 20.346 144.843 20.346C146.603 20.346 148.163 20.5162 149.525 20.8567C150.944 21.1973 152.363 21.6797 153.782 22.304L153.782 2.04308L166.466 0L166.466 64.6134Z" fill="#ffffff" fill-rule="nonzero" opacity="1" stroke="none"/>
<path d="M75.1236 44.012C75.1236 40.0393 75.7195 36.5773 76.9113 33.6262C78.1598 30.6183 79.7773 28.1211 81.7637 26.1348C83.75 24.1484 86.0201 22.6445 88.574 21.6229C91.1847 20.6014 93.8521 20.0906 96.5757 20.0906C102.932 20.0906 107.955 22.0486 111.644 25.9645C115.333 29.8237 117.177 35.5274 117.177 43.0756C117.177 43.8134 117.149 44.6363 117.092 45.5443C117.035 46.3956 116.978 47.1618 116.922 47.8428L88.1484 47.8428C88.4321 50.4535 89.6523 52.525 91.809 54.0573C93.9656 55.5896 96.8595 56.3558 100.492 56.3558C102.819 56.3558 105.089 56.1572 107.302 55.7599C109.572 55.3059 111.417 54.7667 112.835 54.1424L114.538 64.4431C113.857 64.7836 112.949 65.1241 111.814 65.4647C110.679 65.8052 109.402 66.0889 107.983 66.316C106.621 66.5997 105.145 66.8267 103.556 66.997C101.967 67.1672 100.378 67.2524 98.7891 67.2524C94.7596 67.2524 91.2414 66.6565 88.2335 65.4647C85.2824 64.2728 82.8136 62.6554 80.8272 60.6123C78.8976 58.5124 77.4504 56.0436 76.4856 53.206C75.5776 50.3683 75.1236 47.3037 75.1236 44.012ZM104.918 39.1596C104.862 38.0813 104.663 37.0314 104.323 36.0098C104.039 34.9883 103.556 34.0802 102.875 33.2857C102.251 32.4911 101.428 31.8385 100.407 31.3277C99.4418 30.8169 98.2216 30.5615 96.746 30.5615C95.3272 30.5615 94.1075 30.8169 93.0859 31.3277C92.0643 31.7817 91.213 32.406 90.532 33.2005C89.851 33.9951 89.3118 34.9315 88.9145 36.0098C88.574 37.0314 88.3186 38.0813 88.1484 39.1596L104.918 39.1596Z" fill="#ffffff" fill-rule="nonzero" opacity="1" stroke="none"/>
<path d="M17.3664 7.06573C18.388 8.93858 19.5514 11.2655 20.8567 14.0464C22.2188 16.7705 23.6093 19.7501 25.0281 22.985C26.5037 26.1632 27.9509 29.4265 29.3697 32.7749C30.7885 36.1233 32.1222 39.2731 33.3708 42.2243C34.6194 39.2731 35.9531 36.1233 37.3719 32.7749C38.7907 29.4265 40.2095 26.1632 41.6284 22.985C43.1039 19.7501 44.4944 16.7705 45.7997 14.0464C47.1618 11.2655 48.3536 8.93858 49.3752 7.06573L61.4636 7.06573C62.0311 10.9817 62.5419 15.3801 62.9959 20.2608C63.5067 25.0849 63.9323 30.1359 64.2728 35.4139C64.6701 40.6352 65.0106 45.8848 65.2944 51.1629C65.6349 56.4409 65.9187 61.4068 66.1457 66.0606L53.206 66.0606C53.0357 60.3285 52.8087 54.0857 52.525 47.3321C52.2412 40.5784 51.8155 33.7681 51.248 26.901C50.2265 29.2846 49.0914 31.9236 47.8428 34.818C46.5943 37.7124 45.3457 40.6068 44.0971 43.5012C42.9053 46.3956 41.7419 49.1765 40.6068 51.8439C39.4718 54.4546 38.507 56.6963 37.7124 58.5692L28.4333 58.5692C27.6387 56.6963 26.6739 54.4546 25.5389 51.8439C24.4038 49.1765 23.212 46.3956 21.9634 43.5012C20.7716 40.6068 19.5514 37.7124 18.3029 34.818C17.0543 31.9236 15.9192 29.2846 14.8977 26.901C14.3301 33.7681 13.9045 40.5784 13.6207 47.3321C13.337 54.0857 13.11 60.3285 12.9397 66.0606L0 66.0606C0.227012 61.4068 0.482401 56.4409 0.766166 51.1629C1.10668 45.8848 1.4472 40.6352 1.78772 35.4139C2.18499 30.1359 2.61064 25.0849 3.06467 20.2608C3.57544 15.3801 4.1146 10.9817 4.68213 7.06573L17.3664 7.06573Z" fill="#ffffff" fill-rule="nonzero" opacity="1" stroke="none"/>
</g>
</g>
</svg>
